P3
# Created by GIMP version 2.10.10 PNM plug-in
43 58
255
43
29
33
41
29
33
41
29
34
44
31
34
46
36
38
49
41
44
54
48
54
59
54
64
59
58
71
63
63
74
59
61
73
61
63
74
59
63
74
58
63
74
59
63
76
59
63
76
61
63
76
63
64
78
61
63
76
61
64
74
61
64
73
63
66
74
61
64
74
61
64
74
61
63
74
61
63
74
63
63
74
64
64
76
63
63
76
59
63
74
59
63
73
61
64
73
63
66
73
64
68
76
63
66
78
64
69
81
63
66
78
59
63
74
63
66
79
61
63
76
59
63
76
58
63
76
61
64
78
43
29
33
41
29
33
43
31
34
46
34
38
51
41
44
54
46
51
59
53
61
63
58
68
63
63
76
58
61
74
58
61
74
58
61
73
58
61
73
58
63
74
59
64
76
58
63
74
58
61
73
61
63
76
61
64
78
58
63
74
59
63
73
58
61
71
59
61
73
61
61
73
59
61
73
58
61
73
61
63
74
63
63
74
63
64
76
61
64
76
61
64
76
61
64
74
63
66
74
63
66
76
63
66
78
63
66
78
64
68
79
63
66
79
63
64
79
61
63
76
59
63
76
59
64
78
63
66
79
43
29
33
43
31
33
44
34
36
48
39
43
53
46
51
58
53
61
58
56
68
61
61
73
61
63
76
59
63
76
59
63
78
61
64
78
61
63
74
61
63
74
59
61
73
59
61
73
59
61
73
61
63
76
59
63
78
58
63
76
59
63
74
61
64
78
61
63
78
59
61
74
59
61
74
61
63
74
63
63
74
64
64
76
64
64
76
64
66
78
63
64
78
61
64
76
61
64
76
63
66
78
61
64
76
61
64
76
63
66
78
63
66
79
59
63
79
61
64
79
61
64
78
63
66
79
63
64
78
43
29
33
46
33
34
48
38
39
51
44
48
54
51
58
58
56
64
59
61
73
58
63
74
61
64
76
59
63
74
59
63
76
59
63
74
61
63
74
61
61
73
61
61
74
61
61
73
64
64
74
59
61
73
59
63
78
54
59
73
54
58
69
49
53
66
44
48
63
43
48
59
43
44
53
46
46
54
46
46
53
51
49
58
54
54
63
58
58
68
61
63
74
59
63
73
61
64
74
59
64
76
61
64
76
63
66
78
63
66
78
59
64
78
58
63
78
61
66
79
59
63
76
61
63
74
63
64
76
43
31
34
48
36
39
51
43
46
54
49
54
56
54
63
59
59
69
61
63
74
61
64
74
63
64
74
63
64
76
61
63
76
59
63
74
61
63
74
61
61
74
61
61
76
63
63
74
61
63
73
59
61
73
59
63
78
53
58
71
48
53
64
43
46
59
36
39
54
31
34
44
34
34
39
36
34
38
38
36
39
43
39
44
46
44
51
51
51
59
56
56
66
59
61
71
61
64
74
64
68
79
63
66
79
64
68
81
63
66
79
59
64
78
59
64
79
63
68
81
61
64
78
63
66
78
63
64
76
43
33
36
49
39
44
54
48
54
56
53
59
59
59
68
59
61
71
63
64
76
61
63
73
61
63
71
61
63
73
61
63
74
59
63
74
61
63
76
61
61
74
63
63
78
61
63
76
61
63
74
58
61
73
58
63
76
49
56
68
46
51
63
38
43
54
34
38
49
33
34
43
31
31
36
36
33
38
38
34
39
46
41
46
53
49
54
56
54
61
61
61
71
61
63
73
63
64
74
63
66
78
64
68
81
61
66
78
61
66
78
59
64
76
61
66
79
61
66
79
58
63
76
61
66
78
59
63
74
48
38
43
49
43
49
53
49
59
58
58
66
63
63
71
61
63
73
61
63
74
61
64
74
61
63
71
63
64
74
61
63
74
59
63
76
59
61
76
59
61
76
59
61
76
61
63
76
59
61
74
58
61
73
54
59
71
48
54
66
41
46
58
36
41
51
33
34
43
31
31
38
33
31
38
38
34
41
39
36
43
48
44
49
53
51
56
58
58
64
61
61
71
63
64
74
63
64
76
61
64
76
61
64
78
61
64
76
61
64
76
63
66
78
63
66
78
61
66
79
61
64
79
64
68
81
61
66
78
51
43
48
53
48
54
58
56
64
58
59
68
64
66
74
61
64
74
59
63
74
58
63
73
61
64
73
61
64
74
59
63
74
59
63
74
59
63
76
59
63
76
61
63
76
61
63
76
56
59
73
54
59
73
53
58
71
43
49
61
38
43
53
33
38
46
29
31
38
33
31
38
33
31
36
38
34
39
43
39
44
49
46
51
56
54
61
59
59
68
61
63
74
61
64
74
61
64
74
61
64
76
61
64
78
61
64
76
61
64
73
61
64
74
64
68
79
61
66
79
61
64
79
63
66
79
59
66
79
54
46
51
59
54
59
59
58
64
61
61
69
61
63
73
63
66
76
59
63
74
58
61
71
61
64
73
61
64
74
59
63
74
59
63
74
59
63
74
61
64
76
59
63
74
61
63
76
56
59
74
54
59
74
48
53
69
41
46
59
36
39
49
31
34
43
31
31
38
33
31
36
34
31
36
41
36
41
46
43
48
54
51
58
56
56
64
59
61
73
61
63
78
61
64
76
63
64
73
64
66
78
63
64
79
63
66
76
63
66
73
61
64
74
64
68
81
61
66
79
61
64
79
61
64
79
53
59
74
54
48
53
58
53
61
61
59
69
61
61
71
59
61
69
58
61
73
59
61
74
59
61
73
61
64
74
59
64
74
61
64
76
61
64
76
61
64
76
59
64
76
63
66
78
59
63
76
56
61
76
49
56
71
44
49
66
38
43
54
33
36
44
31
33
39
31
31
38
34
31
36
36
31
36
46
39
44
53
48
53
58
53
59
59
59
69
59
63
74
61
64
78
61
64
76
63
64
74
64
64
76
64
66
79
63
66
78
64
68
78
63
66
78
64
68
81
61
66
79
61
66
79
58
63
74
51
58
69
56
51
58
59
58
68
59
59
74
63
64
76
61
63
71
61
64
76
59
61
78
61
63
78
61
63
76
61
64
76
61
64
76
61
66
78
61
64
76
61
64
76
59
63
74
59
63
76
53
58
73
49
54
69
39
44
61
36
39
51
31
33
41
29
31
38
31
29
36
36
31
38
39
34
41
48
43
49
53
49
56
58
54
63
61
61
73
63
66
78
61
64
76
63
66
78
63
64
76
64
64
76
63
64
76
61
64
76
61
64
78
64
66
79
61
64
79
61
66
79
58
64
76
56
63
73
48
54
63
59
56
63
58
58
68
59
61
76
59
63
74
61
64
73
61
64
74
61
63
76
61
63
78
61
63
78
59
63
76
56
61
71
56
63
74
59
64
76
59
63
74
58
61
73
54
59
73
51
56
71
43
48
61
38
41
54
33
36
46
29
31
38
29
31
36
31
29
34
39
33
38
44
39
44
49
46
53
58
54
61
61
58
66
64
64
76
61
64
76
61
64
78
61
66
78
63
66
76
64
66
76
64
68
79
61
66
78
63
66
79
63
64
78
59
63
78
58
64
78
56
64
78
46
56
68
41
48
59
59
58
64
64
64
74
58
61
76
61
66
78
59
63
71
63
66
76
64
66
78
64
66
81
59
63
81
59
63
76
59
63
73
58
63
74
59
63
76
61
63
74
58
61
73
53
58
71
46
51
66
39
44
56
34
38
48
31
33
39
29
29
34
31
31
34
34
31
34
41
36
39
46
43
48
53
51
58
58
56
64
63
63
73
63
63
74
63
64
78
61
64
79
64
68
79
63
66
76
63
66
76
61
66
78
63
68
81
61
64
79
63
64
79
59
63
78
59
64
79
53
59
74
44
53
68
39
44
61
58
58
66
63
64
74
56
61
73
56
64
76
56
61
73
61
64
74
61
64
74
59
63
76
59
63
79
58
63
76
63
66
74
59
63
74
59
61
74
59
61
74
59
63
74
48
54
68
41
46
59
36
41
53
33
34
44
31
31
38
31
29
34
34
31
34
36
33
36
44
39
43
49
46
49
54
53
58
59
59
68
59
61
71
59
61
73
63
64
76
63
64
78
63
66
78
59
64
74
58
64
74
59
66
76
58
64
76
61
64
79
61
63
78
63
64
79
58
61
74
51
56
69
43
49
63
38
43
56
59
59
69
63
64
74
61
63
73
59
63
74
59
63
78
63
64
76
63
64
73
63
64
76
59
63
79
61
64
76
61
64
73
63
66
78
59
63
78
58
61
74
53
58
71
44
51
64
39
44
58
36
39
51
31
31
41
31
29
36
33
31
36
36
33
38
39
36
41
48
43
46
51
49
51
56
56
61
61
61
71
61
63
73
61
63
74
64
68
79
61
64
78
63
68
79
59
64
74
61
66
76
59
64
74
58
63
74
59
63
78
61
63
78
59
63
78
54
59
73
49
56
69
41
49
61
36
41
51
61
61
73
59
61
73
63
63
74
61
61
73
59
59
71
61
63
73
63
64
73
61
63
74
63
64
79
59
63
76
59
63
74
59
64
76
59
64
78
54
61
74
49
56
69
41
48
61
38
41
54
34
36
46
29
29
38
33
29
36
36
33
38
38
34
39
44
39
44
53
46
49
56
54
58
58
59
66
63
64
74
61
63
73
61
64
74
61
66
78
61
66
78
59
66
76
61
66
76
63
66
76
63
66
78
61
64
78
59
63
78
61
64
78
56
61
74
53
59
73
48
56
71
38
48
59
36
41
49
61
61
76
61
63
78
59
61
76
58
61
73
59
61
71
63
64
74
61
63
73
59
61
73
61
63
76
61
64
78
59
63
78
58
63
76
58
63
74
54
61
73
44
51
64
39
44
58
36
39
53
33
34
44
31
31
38
33
31
36
36
33
38
39
36
41
48
43
48
56
49
54
58
56
63
61
63
71
63
64
76
63
64
74
61
64
74
61
64
74
61
64
76
63
68
78
61
64
74
59
63
74
61
63
76
61
63
76
59
63
78
63
68
81
59
64
76
54
61
76
46
53
71
38
46
59
36
39
48
61
61
74
59
61
74
58
61
74
54
61
73
58
61
71
61
63
74
64
66
79
59
63
76
59
63
76
61
64
78
63
66
79
58
63
76
54
61
74
48
56
69
41
48
61
36
41
53
34
38
46
31
33
39
33
33
38
33
31
36
38
34
39
44
39
43
53
48
51
59
53
58
59
58
66
59
61
71
63
64
78
61
64
76
61
64
74
61
64
74
61
64
74
61
64
74
61
64
74
59
63
74
61
63
78
61
63
76
61
64
78
59
66
79
58
64
78
51
59
74
44
51
68
38
44
58
36
38
48
61
63
76
59
61
73
59
63
74
59
64
74
59
63
73
61
63
76
61
63
79
61
63
78
63
64
79
63
66
79
61
64
76
58
63
76
53
58
74
44
51
66
39
44
59
36
39
49
33
34
39
29
31
36
31
31
36
33
31
36
39
36
41
48
43
46
56
51
53
59
56
63
61
61
73
63
64
78
61
64
79
63
66
79
63
66
78
63
66
76
63
66
76
63
66
76
61
64
74
61
64
78
59
63
79
61
64
79
59
64
78
59
66
81
58
64
81
51
59
74
44
51
66
38
44
58
36
38
49
61
64
78
59
61
73
61
63
74
59
63
74
61
64
74
59
63
74
61
63
74
61
63
74
61
63
76
59
63
74
59
63
74
54
59
73
49
54
69
43
48
61
38
41
53
33
34
43
29
31
38
29
31
36
31
31
34
38
34
39
43
38
43
53
46
51
59
56
59
59
58
64
64
64
76
59
63
74
61
64
78
59
64
76
61
64
74
61
64
74
59
63
73
61
64
74
61
64
76
59
64
76
58
63
76
61
66
78
61
66
78
59
66
79
59
66
81
51
59
74
46
53
68
36
43
54
34
36
46
59
63
76
61
63
76
59
63
76
59
63
74
59
63
74
59
63
73
61
63
71
63
64
74
61
63
74
58
61
73
58
61
74
53
58
71
44
49
64
39
44
56
36
38
48
31
31
39
29
29
38
31
31
36
33
31
34
43
38
43
48
43
49
54
49
56
56
54
61
61
61
69
61
63
74
59
63
74
59
63
76
63
66
76
63
64
73
63
64
74
61
63
74
59
63
74
61
64
78
63
66
78
61
64
76
64
68
78
63
66
76
61
66
78
59
64
79
54
61
76
46
53
69
38
43
54
34
36
44
58
61
76
59
63
76
61
64
76
58
63
76
58
61
74
58
61
71
59
63
71
58
61
71
58
61
74
58
61
74
56
61
74
46
53
66
41
46
59
34
39
51
33
34
43
29
29
38
29
29
36
33
31
36
36
33
36
46
39
43
53
48
53
58
53
58
59
59
66
58
61
71
59
63
74
59
63
74
61
63
76
61
63
73
61
63
71
61
63
71
61
63
73
61
64
74
64
68
78
63
66
76
64
66
76
63
64
74
64
66
76
61
64
76
58
63
76
51
58
73
48
53
69
38
43
56
34
36
46
58
61
78
61
64
78
59
63
74
58
61
74
58
61
78
58
63
74
58
61
69
61
64
76
58
61
76
58
63
76
51
56
69
46
51
64
38
43
56
33
36
46
29
31
39
29
29
36
31
29
36
36
33
38
41
38
41
49
44
48
54
51
54
61
58
63
59
59
68
61
61
71
61
61
74
61
61
74
63
63
76
64
64
74
64
64
73
64
64
73
63
64
74
63
66
74
63
66
73
63
66
74
63
64
74
61
63
73
61
64
76
61
64
76
56
61
74
53
59
74
46
51
68
39
44
58
33
36
48
58
61
74
59
64
76
58
61
71
59
61
73
58
61
76
56
63
74
56
61
71
61
64
76
58
63
76
53
59
73
46
51
66
41
46
59
38
41
53
31
34
44
29
29
38
31
29
36
33
29
36
38
33
38
39
36
41
43
39
44
46
44
49
46
44
51
48
46
53
48
46
54
53
49
59
58
53
61
61
58
66
61
59
66
61
61
68
61
61
68
59
61
68
61
64
73
63
66
76
63
66
76
61
64
74
61
64
74
59
63
74
58
63
76
56
61
76
48
54
68
43
49
63
38
44
56
33
36
46
59
63
73
61
64
74
61
64
74
63
64
76
59
63
76
58
63
76
58
63
76
59
64
76
56
61
73
53
58
71
43
48
64
38
43
56
34
38
48
31
33
41
29
29
38
31
29
36
31
29
36
31
29
36
33
31
38
33
31
38
33
31
39
33
31
38
31
29
36
31
29
36
33
31
39
38
34
39
41
39
43
48
46
51
54
53
59
63
61
66
63
63
68
64
64
73
64
64
78
66
68
79
64
66
76
64
66
76
61
64
76
61
64
78
56
61
78
51
56
69
46
51
61
39
46
54
33
36
44
58
63
74
59
63
74
59
63
74
59
63
76
61
64
78
59
63
76
58
63
74
56
63
74
54
59
71
48
53
66
41
46
61
34
39
49
33
34
41
31
31
38
29
29
36
31
29
36
31
31
36
29
29
34
28
28
33
29
28
34
31
29
36
31
29
36
31
29
36
33
29
36
33
31
38
33
31
36
34
33
36
41
38
41
46
43
46
54
49
53
59
56
61
61
58
66
61
61
74
63
64
76
61
63
74
61
63
74
61
63
76
61
64
78
59
63
78
51
56
69
46
51
63
38
44
54
34
36
46
59
63
76
59
63
76
61
63
78
63
64
79
61
63
78
59
61
74
58
61
73
54
61
73
49
56
69
43
49
63
38
43
56
33
36
44
31
33
38
29
29
34
31
29
36
31
29
34
31
29
34
33
31
36
31
29
34
31
29
34
31
29
36
31
29
36
31
29
36
33
29
34
33
31
36
33
33
36
33
33
36
34
33
34
41
38
38
48
43
46
53
48
54
59
54
64
59
58
71
64
66
79
61
63
76
63
64
78
63
64
79
63
66
79
59
63
76
54
59
73
44
49
63
39
44
56
34
36
48
58
61
73
59
63
76
58
59
74
59
61
74
61
63
76
59
61
74
58
61
74
53
59
73
48
54
68
38
46
58
34
39
51
31
34
43
31
31
36
31
29
34
33
31
36
33
29
34
31
28
33
31
28
33
31
29
36
31
29
36
31
29
36
33
29
36
33
29
36
33
29
34
33
31
36
33
33
36
31
31
34
31
31
34
34
31
33
43
36
39
48
41
44
54
48
54
58
56
66
59
61
73
61
63
74
61
64
76
61
64
78
61
64
78
59
64
78
49
56
69
43
48
63
38
43
56
34
36
48
59
61
73
59
63
76
59
61
76
61
63
76
59
63
74
58
63
76
54
59
76
51
58
73
43
49
63
36
43
54
31
36
46
31
33
39
29
29
34
31
29
34
31
29
34
33
31
36
33
31
36
34
31
38
31
29
38
29
29
36
29
29
36
29
29
36
29
29
38
31
31
38
31
31
36
33
33
38
31
31
36
33
31
36
34
31
36
38
33
36
44
38
39
49
43
48
56
53
61
61
59
69
61
61
73
63
64
76
61
63
74
61
63
74
59
63
76
53
58
73
43
48
64
39
43
56
36
36
48
61
63
74
59
63
74
61
64
78
59
63
74
59
64
74
54
63
76
49
58
74
44
53
68
39
46
59
33
39
49
29
33
41
29
31
38
29
29
34
33
29
33
33
31
34
34
33
36
36
34
39
39
36
43
41
39
48
39
39
48
41
41
49
36
38
48
34
36
48
31
33
43
31
31
39
33
33
39
33
31
38
33
29
36
34
31
38
36
31
36
41
34
38
48
39
44
56
49
56
61
56
64
63
61
71
63
63
74
64
64
78
61
63
76
58
61
74
51
56
69
46
49
64
38
41
53
36
36
46
59
61
74
59
63
74
61
63
74
61
63
73
59
63
73
56
63
76
48
54
71
43
49
64
38
43
56
31
36
46
29
31
39
29
29
36
31
29
36
34
29
33
38
34
36
41
38
41
46
44
49
53
51
58
56
56
64
61
63
71
61
63
73
61
63
74
53
56
71
46
49
63
38
41
53
31
34
44
31
31
39
31
29
38
31
29
38
34
31
38
38
33
38
44
36
41
51
44
51
58
53
59
59
58
66
64
64
76
61
63
78
63
64
79
58
61
76
53
56
69
46
49
63
36
41
53
34
34
44
61
63
76
59
63
74
61
63
73
61
63
73
61
64
74
53
58
71
48
53
69
41
46
61
36
39
53
31
34
44
31
31
38
33
29
34
36
31
36
39
33
36
44
39
43
51
46
51
58
54
61
59
58
64
61
63
71
58
63
71
61
64
74
59
63
74
56
61
74
49
56
69
44
51
64
34
41
53
31
34
44
31
31
39
31
31
38
33
31
36
36
31
34
43
34
38
49
43
48
56
49
54
58
56
63
63
64
74
61
63
78
59
63
76
59
63
76
51
54
68
44
49
63
34
41
53
33
34
43
59
61
74
59
63
73
61
63
71
63
64
73
58
63
73
53
59
73
44
51
68
39
44
59
34
38
51
31
33
41
33
31
36
34
29
33
38
33
36
44
38
41
49
44
49
56
53
59
58
58
68
64
66
74
64
66
74
63
66
74
61
64
74
63
66
76
59
63
74
58
63
76
49
56
71
41
48
61
38
41
53
34
34
43
31
31
38
33
31
36
36
31
34
41
33
36
48
41
44
54
48
53
56
54
61
63
64
74
61
63
78
59
63
76
58
61
74
49
54
68
44
49
64
36
41
53
34
34
43
58
61
74
59
63
74
61
64
76
59
63
74
56
63
74
46
56
69
43
51
66
36
43
56
33
36
48
31
31
39
34
31
36
38
31
34
41
34
38
48
41
44
54
49
54
59
56
63
63
63
73
61
66
76
61
64
73
61
64
74
61
64
74
61
64
74
61
64
76
58
63
76
54
61
78
44
53
66
39
44
56
34
36
46
33
33
41
34
31
36
36
31
34
41
33
36
48
41
43
54
48
51
56
54
59
59
61
69
61
63
76
59
63
76
56
61
76
48
56
69
46
51
64
36
39
49
34
34
41
58
61
76
59
63
78
59
63
78
58
63
76
54
61
74
48
56
69
44
49
63
38
41
53
33
34
46
29
29
38
34
31
36
39
33
38
43
38
43
49
44
49
56
53
58
63
61
69
63
63
74
64
68
78
63
66
76
61
64
74
61
64
76
63
66
78
61
64
76
59
64
79
56
61
79
51
58
73
43
48
61
36
39
51
33
33
43
33
31
38
33
29
34
39
34
38
46
39
41
54
48
51
56
53
58
59
59
68
59
63
74
58
63
76
54
61
78
49
58
71
43
48
59
36
39
48
34
34
41
56
59
74
58
61
74
58
63
76
56
63
76
53
59
73
48
54
68
44
48
59
38
39
51
33
33
43
31
29
36
34
31
36
41
34
39
44
39
44
51
46
51
59
56
63
63
61
69
64
64
76
63
64
74
63
64
73
59
63
73
59
63
74
61
64
76
61
64
74
59
64
78
58
63
79
51
56
71
46
51
66
36
41
53
33
34
44
33
31
39
31
29
36
38
34
39
43
38
41
54
46
51
58
54
61
61
61
69
61
64
76
56
64
78
53
61
76
46
56
69
43
49
63
36
39
49
34
34
43
58
61
76
59
63
76
58
63
74
56
63
76
53
59
74
48
54
68
41
46
58
36
39
49
33
33
43
33
31
38
34
31
36
41
34
39
44
39
44
54
49
56
58
56
64
61
61
71
64
64
76
63
64
74
63
64
73
61
64
74
59
63
76
61
64
76
61
64
74
59
64
76
58
63
78
53
58
73
44
49
66
39
44
58
33
34
44
34
33
41
33
29
38
39
34
41
44
39
44
53
46
53
58
54
63
63
63
73
61
64
78
58
66
79
54
63
76
46
56
69
41
48
63
36
41
53
34
34
44
59
63
76
59
63
76
58
63
76
56
63
76
53
59
73
46
53
66
41
46
59
34
39
51
33
34
44
33
31
38
34
31
36
41
34
39
48
41
46
54
48
54
59
58
64
59
61
69
64
66
76
63
64
74
63
64
74
61
64
74
61
64
76
61
64
76
61
64
74
61
66
79
58
63
78
51
58
73
43
49
63
38
44
56
34
36
46
34
33
41
34
31
38
43
36
41
48
41
46
54
48
53
58
56
63
61
63
73
59
64
78
56
64
78
56
64
78
46
56
69
39
48
61
34
41
51
33
34
43
59
61
74
59
63
76
56
61
76
56
63
76
54
59
73
49
54
68
41
46
61
34
39
51
31
33
43
33
31
38
34
31
36
41
36
41
46
41
48
54
48
54
56
54
61
61
63
69
63
64
73
61
64
74
61
64
76
63
64
76
61
64
76
63
68
79
61
64
76
64
68
81
59
63
79
53
58
71
46
51
63
38
44
54
36
38
48
33
33
41
34
31
38
41
34
39
46
41
46
54
49
54
58
56
63
63
64
74
61
64
79
58
64
78
56
63
76
48
56
69
39
46
59
36
41
51
33
34
41
59
61
74
58
61
74
56
61
74
54
61
74
54
59
73
48
53
66
43
48
61
34
39
51
31
33
44
31
29
38
34
31
36
41
36
41
48
43
48
54
48
54
61
59
66
61
63
71
59
63
73
59
66
74
63
66
74
64
66
76
63
66
76
59
66
78
61
64
78
64
66
79
59
63
78
51
56
69
44
49
61
36
43
53
33
36
44
33
33
39
36
33
38
43
36
39
48
43
46
53
49
53
59
59
64
61
63
71
61
64
78
59
64
78
56
61
76
46
53
66
41
46
59
34
39
49
33
34
41
61
61
74
61
63
74
58
61
73
56
61
74
54
59
74
48
53
66
41
46
59
34
41
54
31
33
46
31
29
39
34
31
38
39
34
39
44
39
44
56
49
56
59
56
64
63
63
73
61
63
74
63
68
76
64
68
74
64
68
76
63
66
76
61
66
78
61
64
79
61
64
79
56
61
76
54
59
73
44
49
63
36
43
53
34
36
44
34
33
39
36
33
38
43
36
39
48
43
44
53
49
53
59
59
64
61
63
71
61
64
76
61
66
81
54
59
78
44
51
66
39
44
58
34
38
48
34
34
41
61
61
74
61
61
73
61
63
73
58
61
73
54
59
73
49
56
71
39
46
61
34
43
56
31
34
48
33
31
41
34
31
38
39
33
38
44
38
43
53
46
51
56
53
59
61
59
69
63
64
76
61
66
78
63
68
78
63
68
79
61
64
76
61
64
78
61
66
79
56
63
76
53
59
74
46
53
66
39
46
58
34
41
51
36
36
43
36
31
38
38
33
38
44
38
43
48
43
48
56
51
58
61
59
68
61
63
73
61
64
76
59
64
79
54
59
76
46
53
68
41
46
58
36
39
48
36
36
43
61
61
76
61
63
74
59
63
71
58
63
73
56
61
74
54
61
76
41
48
66
36
44
59
33
36
49
33
33
43
33
31
38
38
33
38
41
36
41
51
44
49
56
51
58
61
58
68
61
61
74
61
64
78
63
66
81
64
68
83
63
66
81
61
64
78
61
64
78
58
63
76
51
56
71
44
49
63
39
44
56
36
39
48
33
33
39
34
31
38
38
33
39
46
39
46
51
46
54
59
54
64
61
59
71
63
64
76
63
64
78
61
64
79
56
61
78
46
54
68
43
48
59
38
41
49
36
36
43
61
63
74
58
63
73
59
64
73
56
63
73
56
63
76
51
59
73
43
51
66
38
46
59
33
36
48
33
33
41
34
33
39
36
33
38
39
34
38
46
39
43
54
49
54
59
54
61
63
61
69
61
63
73
63
64
76
63
64
78
63
64
79
61
64
79
63
66
81
54
59
73
48
53
66
39
44
54
36
39
46
34
36
43
31
31
36
36
33
38
39
34
39
46
39
46
51
46
54
61
56
66
63
61
73
61
63
74
64
66
78
63
64
78
59
64
78
48
58
71
43
49
63
38
43
53
34
36
43
63
63
71
61
64
73
59
64
73
59
64
74
58
63
76
53
59
73
46
53
66
43
49
61
38
41
51
33
34
43
33
33
39
36
34
39
36
33
36
38
33
36
44
39
43
53
48
51
58
54
59
63
61
68
64
63
73
66
64
76
63
63
78
61
63
78
54
58
74
49
54
68
43
46
58
36
39
46
34
36
39
33
33
36
33
31
36
38
34
39
41
36
41
49
43
49
53
49
59
59
58
68
63
63
74
68
69
81
64
66
78
63
66
78
58
64
76
51
61
74
43
51
66
38
44
56
34
38
46
64
64
73
59
63
71
61
64
74
61
66
78
58
63
76
56
61
74
51
56
71
44
51
64
38
43
56
34
38
49
33
33
41
33
31
38
34
31
34
36
31
34
36
31
34
43
36
39
46
41
46
51
46
51
56
51
58
54
49
58
54
53
63
46
48
58
44
48
59
36
43
53
34
38
46
33
34
39
33
33
36
34
33
36
34
33
36
39
36
39
44
39
43
53
46
51
58
54
63
61
61
73
64
64
79
64
66
79
63
66
79
59
66
79
56
64
76
51
61
74
44
53
68
38
46
58
34
39
48
61
59
68
63
63
73
64
64
76
66
68
81
61
63
78
61
63
78
53
58
74
49
56
73
39
46
64
36
41
56
33
34
46
31
31
39
33
31
36
34
33
36
36
33
36
36
33
36
36
33
38
36
33
38
36
33
38
38
34
39
36
34
41
34
34
41
33
33
39
31
33
38
33
33
38
34
34
38
33
33
36
34
33
36
38
34
38
41
38
41
48
44
48
56
51
56
59
58
64
66
66
78
63
63
81
61
63
79
61
64
81
63
68
83
58
64
78
54
63
78
49
58
74
41
49
63
38
43
53
61
56
63
63
59
69
66
64
76
64
64
78
64
64
78
63
63
76
58
61
74
51
59
74
43
51
69
38
46
61
34
38
49
34
34
43
31
31
36
33
33
36
34
34
38
34
33
36
33
31
36
33
31
36
34
33
39
33
31
38
33
31
38
33
31
36
34
33
38
33
31
36
33
31
36
34
33
36
34
33
36
38
34
38
39
36
39
48
43
46
54
51
56
59
56
63
64
63
73
64
63
76
63
63
78
63
64
79
63
66
83
61
66
81
63
68
81
56
63
78
54
63
78
44
54
68
41
48
59
58
53
59
63
59
69
64
63
76
66
66
79
64
64
78
66
68
79
61
64
76
58
64
79
49
56
74
44
51
66
41
44
56
36
38
46
34
34
41
33
33
38
33
33
36
33
31
36
31
31
38
31
31
38
31
31
39
33
31
38
33
31
38
34
33
38
34
33
38
34
33
38
34
33
38
36
34
38
36
34
38
39
36
39
44
41
44
51
48
53
56
54
61
61
61
71
63
63
78
66
66
79
64
66
79
64
66
81
63
66
83
63
66
81
61
64
79
59
64
79
56
63
78
51
59
74
46
53
68
56
49
56
58
54
63
63
61
73
64
64
76
63
64
78
61
64
78
61
64
76
59
64
78
58
63
76
49
56
71
43
48
63
38
41
53
36
36
46
34
33
39
33
31
34
33
31
36
31
31
38
31
31
38
31
31
38
33
31
38
33
31
38
33
31
38
33
31
38
34
31
36
36
33
38
38
34
38
41
38
41
44
41
46
48
46
53
56
54
63
58
58
68
61
63
74
61
63
78
59
63
78
59
63
78
61
64
78
63
66
78
63
66
79
63
66
81
61
64
78
59
64
78
53
61
74
49
58
71
53
44
51
58
53
61
59
58
68
64
64
76
63
63
78
64
66
79
61
64
78
61
64
76
59
63
73
58
63
78
51
54
74
48
51
68
41
44
58
34
38
46
33
34
39
33
33
38
31
31
38
31
31
36
31
31
36
33
31
36
33
31
38
34
33
39
36
33
41
38
34
41
39
36
43
43
39
44
46
44
48
51
49
56
54
54
64
61
61
73
59
61
76
64
66
81
63
64
79
64
68
83
61
64
81
61
64
76
63
66
74
64
68
79
61
64
79
63
66
79
61
66
79
61
68
81
56
63
76
53
41
43
56
49
54
59
56
64
61
59
69
63
63
76
63
64
76
64
66
78
61
64
76
61
64
76
59
63
76
59
63
79
54
58
73
49
54
68
39
48
59
38
43
51
34
38
46
34
34
43
34
33
39
34
33
38
34
33
38
34
33
39
36
33
39
38
34
41
43
38
44
46
43
49
53
49
56
56
54
61
59
59
68
64
66
76
61
64
78
61
64
79
61
64
79
61
64
78
61
64
79
63
66
81
61
64
78
61
64
76
61
64
78
61
64
79
63
66
79
61
66
79
59
66
79
59
66
79
53
41
39
56
48
49
56
51
58
59
56
64
63
61
73
63
63
73
63
64
74
64
68
79
63
66
79
61
64
78
59
63
76
59
63
76
58
61
76
56
61
74
54
58
71
53
54
66
48
48
59
41
41
49
39
39
44
38
38
44
39
39
48
43
43
49
48
48
53
56
54
61
59
58
66
64
63
73
64
64
76
64
66
78
63
64
76
61
64
78
61
64
81
63
66
81
63
66
79
64
69
83
61
66
81
59
64
79
61
64
79
63
66
81
63
66
81
64
68
81
63
66
79
63
66
79
63
66
79
54
41
41
54
44
46
56
48
51
59
53
59
64
61
69
63
63
73
64
66
78
63
66
78
64
68
81
61
66
79
63
66
78
61
64
76
61
64
78
61
64
76
63
64
76
64
64
76
64
64
76
53
53
63
61
63
73
58
61
71
58
61
71
58
63
71
63
64
71
64
64
73
66
66
76
66
66
78
66
68
79
61
66
78
63
66
76
61
64
76
61
64
78
61
66
79
63
68
81
61
68
81
61
68
81
61
68
79
63
68
79
61
66
78
64
68
81
63
66
79
63
64
78
63
64
78
64
66
79
49
38
41
49
38
39
53
43
44
56
48
51
59
54
61
66
63
73
64
64
78
61
64
78
59
63
78
59
63
76
63
64
76
66
68
79
63
66
78
64
68
79
64
66
78
64
64
76
63
64
78
63
64
78
63
64
79
61
64
78
61
64
76
61
64
74
63
64
73
64
66
76
64
66
79
64
68
81
63
66
79
61
64
76
61
64
74
64
68
78
63
66
78
63
68
79
61
66
79
63
68
79
63
68
79
59
66
76
61
66
76
63
68
78
63
66
78
63
66
79
63
64
79
64
66
81
64
66
81
49
38
43
51
38
41
49
38
38
56
44
46
59
51
54
63
56
63
64
64
74
59
64
76
58
61
74
61
63
74
61
63
73
63
64
74
64
68
78
63
68
78
64
68
76
63
64
76
63
66
79
61
66
79
63
66
78
61
64
76
63
64
78
61
63
73
61
63
71
63
66
78
61
66
79
59
66
79
61
66
79
61
64
78
61
64
76
61
66
78
61
66
78
61
66
79
61
66
79
61
66
78
63
68
78
59
66
76
61
66
78
61
66
78
61
66
78
59
64
78
59
63
78
63
64
78
64
66
79
51
41
49
49
38
41
49
38
38
49
39
39
54
46
48
59
51
54
61
58
64
63
64
74
59
61
74
64
66
78
63
64
74
63
64
74
63
66
76
63
68
76
64
68
74
64
66
76
61
64
79
63
66
78
63
66
76
64
68
79
61
63
78
66
68
79
59
63
73
63
68
79
59
64
79
63
66
81
59
64
79
59
64
79
59
64
79
63
66
79
61
64
78
64
66
79
61
64
79
61
66
78
63
68
78
59
66
78
61
66
79
59
64
78
63
66
79
64
68
81
61
64
79
63
66
79
63
66
79
51
41
44
49
38
39
48
38
38
49
39
39
51
41
41
56
46
49
58
53
58
58
56
64
61
61
71
61
64
74
61
63
74
61
63
74
61
64
76
61
66
76
64
68
76
61
64
76
61
64
79
61
64
76
61
64
74
61
64
76
59
63
78
63
66
78
59
64
74
58
66
78
59
64
78
64
66
79
61
66
78
58
66
79
59
64
78
61
64
78
63
64
76
64
64
78
63
64
79
61
66
78
63
68
78
61
68
79
63
68
81
61
66
79
64
68
79
63
66
79
63
66
79
61
66
79
63
66
78
